# xmcd CD database file
#
# Track frame offsets:
#	150
#	18365
#	41620
#	63467
#
# Disc length: 1088 seconds
#
# Revision: 0
# Processed by: cddbd v1.5PL3 Copyright (c) Steve Scherf et al.
# Submitted via: CDex 1.51
#
DISCID=2c043e04
DTITLE=SOFFet - 春風
DYEAR=2004
DGENRE=JPop
TTITLE0=春風
TTITLE1=散歩道
TTITLE2=マイペース(1人ヨガリミックス) Remixed by Yo Yo
TTITLE3=春風 (インストゥルメンタル)
EXTD=YEAR: 2004
EXTT0=
EXTT1=
EXTT2=
EXTT3=
PLAYORDER=
